 <svg version="1.1" id="Capa_1" xmlns="http://www.w3.org/2000/svg" xmlns:xlink="http://www.w3.org/1999/xlink" x="0px" y="0px" viewBox="0 0 97.8 92.2" enable-background="new 0 0 97.8 92.2" xml:space="preserve"> <g> <g> <g> <path fill="#FEC165" d="M84.8,69.6V65c0-0.7,0.6-1.3,1.3-1.3h9c0.9,0,1.5,0.9,1.2,1.8l-1.4,3.7c-0.1,0.3-0.1,0.6,0,0.9l1.4,3.7 c0.3,0.9-0.3,1.8-1.2,1.8h-9c-0.7,0-1.3-0.6-1.3-1.3L84.8,69.6z"/> </g> <g> <path fill="#FEC165" d="M13,69.6V65c0-0.7-0.6-1.3-1.3-1.3h-9c-0.9,0-1.5,0.9-1.2,1.8l1.4,3.7c0.1,0.3,0.1,0.6,0,0.9l-1.4,3.7 c-0.3,0.9,0.3,1.8,1.2,1.8h9c0.7,0,1.3-0.6,1.3-1.3L13,69.6L13,69.6z"/> </g> </g> <g> <g> <path fill="#FDB441" d="M96.3,73.8c0.3,0.9-0.3,1.8-1.2,1.8h-4.5c0.9,0,1.5-0.9,1.2-1.8l-1.4-3.7c-0.1-0.3-0.1-0.6,0-0.9l1.4-3.7 c0.3-0.9-0.3-1.8-1.2-1.8h4.5c0.9,0,1.5,0.9,1.2,1.8l-1.4,3.7c-0.1,0.3-0.1,0.6,0,0.9L96.3,73.8z"/> </g> <g> <path fill="#FDB441" d="M13,65v9.3c0,0.7-0.6,1.3-1.3,1.3H7.2c0.7,0,1.3-0.6,1.3-1.3V65c0-0.7-0.6-1.3-1.3-1.3h4.5 C12.4,63.7,13,64.3,13,65z"/> </g> </g> <g> <path fill="#C8EFFE" d="M40.5,2c-7.1,1-17.1,2.7-23.8,5c-0.8,0.3-1.3,1-1.3,1.8v51.4c0,8.1,3.8,15.7,10.6,21 c5.3,4.1,12.7,8.4,22.9,11c10.2-2.6,17.6-6.9,22.9-11c6.7-5.2,10.6-12.9,10.6-21V8.8c0-0.8-0.5-1.5-1.3-1.8 c-6.7-2.3-16.7-4-23.8-5C51.7,1.2,46.1,1.2,40.5,2L40.5,2z"/> </g> <g> <path fill="#99E6FC" d="M82.4,8.8v51.4c0,8.1-3.8,15.7-10.6,21c-3.9,3-8.9,6.1-15.4,8.6c4.7-2.2,8.5-4.8,11.6-7.3 c6.7-5.4,10.6-13.4,10.6-21.8V7.4c0-0.5-0.2-0.9-0.4-1.2c1,0.3,2,0.6,3,0.9C81.9,7.3,82.4,8,82.4,8.8L82.4,8.8z"/> </g> <g> <path fill="#F9F7F8" d="M42,8.9c-5.9,0.9-14.4,2.3-19.8,4.3c-0.3,0.1-0.5,0.4-0.5,0.8v45.3c0,6.6,3.1,12.8,8.6,17.1 c4.3,3.3,10.4,6.8,18.6,8.9c8.3-2.1,14.4-5.6,18.6-8.9c5.5-4.3,8.6-10.5,8.6-17.1V13.9c0-0.3-0.2-0.6-0.5-0.8 c-5.4-1.9-13.9-3.4-19.8-4.3C51.2,8.3,46.6,8.3,42,8.9z"/> </g> <g> <path fill="#EFEDEF" d="M76.1,13.9v45.3c0,6.6-3.1,12.8-8.6,17.1c-3.7,2.9-8.8,5.9-15.4,8c4.8-2,8.7-4.5,11.6-6.9 c5.5-4.4,8.6-10.9,8.6-17.7v-47c0-0.2-0.1-0.4-0.2-0.6c1.3,0.3,2.5,0.7,3.5,1.1C75.9,13.3,76.1,13.6,76.1,13.9L76.1,13.9z"/> </g> <g> <path fill="#FEDBA6" d="M87.8,68.2H10c-0.6,0-1.2-0.5-1.2-1.2V52.4c0-0.6,0.5-1.2,1.2-1.2h77.8c0.6,0,1.2,0.5,1.2,1.2v14.6 C89,67.7,88.5,68.2,87.8,68.2z"/> </g> <g> <path fill="#FECE85" d="M89,52.4v14.6c0,0.6-0.5,1.2-1.2,1.2H84c0.6,0,1.2-0.5,1.2-1.2V52.4c0-0.6-0.5-1.2-1.2-1.2h3.8 C88.5,51.3,89,51.8,89,52.4z"/> </g> <g> <g> <path fill="#8D9CA8" d="M47.7,28.4H35.5v10.2c0,0.7,0.4,1.3,1.1,1.5c1,0.3,2.5,0.8,2.7,0.8c5.9,1.7,14.1,1.8,19.9-1.1 c0.5-0.3,0.8-0.8,0.8-1.4V28.4H47.7z"/> </g> <g> <path fill="#7A8C98" d="M60,28.4v10.1c0,0.6-0.3,1.1-0.8,1.4c-1,0.5-2.1,0.9-3.2,1.2c0.1-0.2,0.2-0.5,0.2-0.8V28.4L60,28.4 L60,28.4z"/> </g> <g> <path fill="#596C76" d="M47,17.1l-19.6,8.3c-0.3,0.1-0.3,0.6,0,0.7L47,34.4c0.5,0.2,1,0.2,1.5,0l19.6-8.3c0.3-0.1,0.3-0.6,0-0.7 l-19.6-8.3C48,16.9,47.5,16.9,47,17.1z"/> </g> <g> <path fill="#465A61" d="M68.1,26.1l-19.6,8.3c-0.5,0.2-1,0.2-1.5,0l-3-1.3l16.7-7.1c0.3-0.1,0.3-0.5,0-0.7L44,18.4l3-1.3 c0.5-0.2,1-0.2,1.5,0l19.6,8.3C68.4,25.6,68.4,26,68.1,26.1z"/> </g> <g> <path fill="#596C76" d="M68.3,42.7c-1.3,0-2.3-1.1-2.3-2.3v-2.8c0-1.3,1.1-2.3,2.3-2.3s2.3,1.1,2.3,2.3v2.8 C70.7,41.6,69.6,42.7,68.3,42.7z"/> </g> <g> <path d="M96.2,69.6l1.4-3.7c0.3-0.8,0.2-1.8-0.3-2.5c-0.5-0.7-1.4-1.2-2.2-1.2h-4.6v-9.8c0-1.4-1.2-2.6-2.6-2.6h-4V23.2 c0-0.8-0.6-1.4-1.4-1.4s-1.4,0.6-1.4,1.4v26.7h-3.4V13.9c0-0.9-0.6-1.8-1.5-2.1c-5.5-2-14-3.4-20.1-4.3c-4.7-0.7-9.4-0.7-14.1,0 c-6.1,0.9-14.6,2.4-20.1,4.3c-0.9,0.3-1.5,1.2-1.5,2.1v35.9h-3.4v-41c0-0.2,0.1-0.4,0.3-0.4c6.6-2.2,16.4-3.9,23.5-4.9 c5.5-0.8,11-0.8,16.4,0c7.1,1,16.9,2.7,23.5,4.9c0.2,0.1,0.3,0.2,0.3,0.4v7.6c0,0.8,0.6,1.4,1.4,1.4s1.4-0.6,1.4-1.4V8.8 c0-1.4-0.9-2.7-2.2-3.1c-6.8-2.3-16.8-4-24-5.1c-5.7-0.8-11.5-0.8-17.3,0c-7.2,1-17.2,2.8-24,5.1C14.9,6.1,14,7.4,14,8.8v41h-4 c-1.4,0-2.6,1.2-2.6,2.6v9.8H2.7c-0.9,0-1.7,0.4-2.2,1.2C0,64.2-0.1,65.1,0.2,66l1.4,3.7l-1.4,3.7c-0.3,0.8-0.2,1.8,0.3,2.5 C1,76.6,1.8,77,2.7,77h9c1.5,0,2.7-1.2,2.7-2.7v-4.6h1.2c1.8,4.9,5,9.3,9.4,12.7c6.6,5.2,14.5,8.9,23.4,11.2c0.1,0,0.2,0,0.4,0 c0.1,0,0.2,0,0.4,0c8.9-2.3,16.8-6.1,23.4-11.2c4.4-3.4,7.6-7.8,9.4-12.7h1.2v4.6c0,1.5,1.2,2.7,2.7,2.7h9c0.9,0,1.7-0.4,2.2-1.2 c0.5-0.7,0.6-1.7,0.3-2.5L96.2,69.6z M23.1,14.4c5.3-1.8,13.3-3.2,19.1-4c4.4-0.6,8.9-0.6,13.3,0c5.8,0.8,13.8,2.2,19.1,4v35.5 H23.1V14.4z M11.6,74.1H2.9l1.3-3.5c0.2-0.6,0.2-1.3,0-1.9l-1.3-3.5h4.5v1.9c0,1.4,1.2,2.6,2.6,2.6h1.6V74.1z M70.9,80.1 c-6.2,4.9-13.6,8.4-22,10.6c-8.4-2.2-15.8-5.8-22-10.6c-3.6-2.8-6.4-6.4-8.1-10.4h4.1c1.6,2.9,3.8,5.6,6.5,7.7 c5.4,4.2,11.9,7.3,19.2,9.2c0.1,0,0.2,0,0.4,0c0.1,0,0.2,0,0.4,0c7.3-1.9,13.7-5,19.2-9.2c2.8-2.2,5-4.8,6.5-7.7H79 C77.3,73.7,74.6,77.2,70.9,80.1z M40.8,66.8c-0.8,0-1.4,0.6-1.4,1.4s0.6,1.4,1.4,1.4h30.8c-1.3,2-3,3.9-5,5.5 c-5,3.9-11,6.8-17.8,8.6c-6.8-1.8-12.7-4.7-17.8-8.6c-2-1.6-3.7-3.4-5-5.5h8c0.8,0,1.4-0.6,1.4-1.4s-0.6-1.4-1.4-1.4H10.2V52.7 h77.3v14.1L40.8,66.8z M93.5,70.6l1.3,3.5h-8.7v-4.5h1.6c1.4,0,2.6-1.2,2.6-2.6v-1.9h4.5l-1.3,3.5C93.3,69.3,93.3,70,93.5,70.6z" /> <path d="M69.8,34.1c0,0,0-8.3,0-8.3c0,0,0,0,0,0c0,0,0,0,0-0.1c0,0,0-0.1,0-0.1c-0.1-0.7-0.5-1.2-1.1-1.5L49,15.8 c-0.8-0.3-1.8-0.3-2.6,0l-19.6,8.3c-0.7,0.3-1.1,0.9-1.1,1.7c0,0.7,0.4,1.4,1.1,1.7l7.2,3.1v8c0,1.3,0.8,2.4,2.1,2.8 c1.1,0.3,2.5,0.8,2.7,0.8c2.7,0.8,5.9,1.3,9.3,1.3c4,0,8.2-0.7,11.6-2.4c1-0.5,1.6-1.5,1.6-2.6v-7.9l5.5-2.3v5.9 c-1.4,0.6-2.3,1.9-2.3,3.5v2.8c0,2.1,1.7,3.8,3.8,3.8c2.1,0,3.8-1.7,3.8-3.8v-2.8C72.1,36,71.1,34.6,69.8,34.1L69.8,34.1z M58.5,38.4C58.5,38.5,58.5,38.5,58.5,38.4c-5.7,2.9-13.8,2.5-18.9,1c-0.2,0-1.1-0.3-2.7-0.8c0,0-0.1,0-0.1-0.1v-6.8l9.5,4 c0.4,0.2,0.9,0.3,1.3,0.3c0.4,0,0.9-0.1,1.3-0.3l9.5-4L58.5,38.4L58.5,38.4z M48.9,27.3h12.9l-13.9,5.9c-0.1,0-0.2,0-0.4,0 l-17.3-7.3l17.3-7.3c0.1,0,0.2,0,0.4,0l14,5.9h-13c-0.8,0-1.4,0.6-1.4,1.4C47.5,26.6,48.1,27.3,48.9,27.3z M69.2,40.3 c0,0.5-0.4,0.9-0.9,0.9s-0.9-0.4-0.9-0.9v-2.8c0-0.5,0.4-0.9,0.9-0.9c0.5,0,0.9,0.4,0.9,0.9V40.3z"/> <g> <path d="M26.3,55.5v1.6h-2.2v6.6h-2v-6.6h-2.2v-1.6H26.3z"/> <path d="M30.2,63.2c-0.6-0.4-1.2-0.9-1.5-1.5c-0.4-0.6-0.6-1.4-0.6-2.2c0-0.8,0.2-1.5,0.6-2.2c0.4-0.6,0.9-1.1,1.5-1.5 c0.6-0.4,1.4-0.5,2.1-0.5c0.8,0,1.5,0.2,2.1,0.5c0.6,0.4,1.2,0.9,1.5,1.5s0.6,1.4,0.6,2.2c0,0.8-0.2,1.5-0.6,2.2 c-0.4,0.6-0.9,1.2-1.5,1.5c-0.6,0.4-1.4,0.5-2.1,0.5C31.5,63.8,30.8,63.6,30.2,63.2z M33.9,61.3c0.4-0.4,0.6-1,0.6-1.7 c0-0.7-0.2-1.3-0.6-1.7s-0.9-0.7-1.6-0.7c-0.7,0-1.2,0.2-1.6,0.6s-0.6,1-0.6,1.8c0,0.7,0.2,1.3,0.6,1.7s0.9,0.7,1.6,0.7 C33,62,33.5,61.7,33.9,61.3z"/> <path d="M40.5,63.2c-0.6-0.4-1.2-0.9-1.5-1.5c-0.4-0.6-0.6-1.4-0.6-2.2c0-0.8,0.2-1.5,0.6-2.2c0.4-0.6,0.9-1.1,1.5-1.5 c0.6-0.4,1.4-0.5,2.1-0.5c0.8,0,1.5,0.2,2.1,0.5c0.6,0.4,1.2,0.9,1.5,1.5s0.6,1.4,0.6,2.2c0,0.8-0.2,1.5-0.6,2.2 c-0.4,0.6-0.9,1.2-1.5,1.5c-0.6,0.4-1.4,0.5-2.1,0.5C41.9,63.8,41.2,63.6,40.5,63.2z M44.2,61.3c0.4-0.4,0.6-1,0.6-1.7 c0-0.7-0.2-1.3-0.6-1.7s-0.9-0.7-1.6-0.7c-0.7,0-1.2,0.2-1.6,0.6s-0.6,1-0.6,1.8c0,0.7,0.2,1.3,0.6,1.7S42,62,42.6,62 C43.3,62,43.8,61.7,44.2,61.3z"/> <path d="M51.1,62.2h2.6v1.6h-4.6v-8.3h2V62.2z"/> <path d="M57.8,55.5v4.9c0,0.5,0.1,0.9,0.4,1.1c0.2,0.3,0.6,0.4,1.1,0.4c0.5,0,0.8-0.1,1.1-0.4c0.3-0.3,0.4-0.6,0.4-1.1v-4.9h2 v4.9c0,0.7-0.2,1.4-0.5,1.9c-0.3,0.5-0.7,0.9-1.3,1.2c-0.5,0.3-1.1,0.4-1.8,0.4s-1.2-0.1-1.7-0.4c-0.5-0.3-0.9-0.6-1.2-1.2 c-0.3-0.5-0.4-1.1-0.4-1.9v-4.9H57.8z"/> <path d="M70.4,55.5v5.6c0,0.9-0.2,1.5-0.7,2c-0.5,0.5-1.1,0.7-2,0.7c-0.9,0-1.6-0.2-2.1-0.7c-0.5-0.5-0.8-1.2-0.8-2.1h2 c0,0.3,0.1,0.6,0.2,0.8c0.1,0.2,0.3,0.3,0.6,0.3c0.2,0,0.4-0.1,0.6-0.2c0.1-0.2,0.2-0.4,0.2-0.7v-5.6H70.4z"/> <path d="M75.1,55.5v8.3h-2v-8.3H75.1z"/> </g> </g> </g> </g> </svg> 