<?xml version="1.0" encoding="utf-8"?>
<!-- Generator: Adobe Illustrator 18.0.0, SVG Export Plug-In . SVG Version: 6.00 Build 0)  -->
<!DOCTYPE svg PUBLIC "-//W3C//DTD SVG 1.0//EN" "http://www.w3.org/TR/2001/REC-SVG-20010904/DTD/svg10.dtd">
<svg version="1.0" id="Capa_1" xmlns="http://www.w3.org/2000/svg" xmlns:xlink="http://www.w3.org/1999/xlink" x="0px" y="0px"
	 viewBox="0 0 97.8 92.2" enable-background="new 0 0 97.8 92.2" xml:space="preserve">
<g>
	<g>
		<g>
			<path fill="#FFFFFF" d="M68.3,42.7c-1.3,0-2.3-1.1-2.3-2.3v-2.8c0-1.3,1.1-2.3,2.3-2.3s2.3,1.1,2.3,2.3v2.8
				C70.7,41.6,69.6,42.7,68.3,42.7z"/>
		</g>
		<g>
			<path fill="#FFFFFF" d="M96.2,69.6l1.4-3.7c0.3-0.8,0.2-1.8-0.3-2.5c-0.5-0.7-1.4-1.2-2.2-1.2h-4.6v-9.8c0-1.4-1.2-2.6-2.6-2.6
				h-4V23.2c0-0.8-0.6-1.4-1.4-1.4s-1.4,0.6-1.4,1.4v26.7h-3.4V13.9c0-0.9-0.6-1.8-1.5-2.1c-5.5-2-14-3.4-20.1-4.3
				c-4.7-0.7-9.4-0.7-14.1,0c-6.1,0.9-14.6,2.4-20.1,4.3c-0.9,0.3-1.5,1.2-1.5,2.1v35.9h-3.4v-41c0-0.2,0.1-0.4,0.3-0.4
				c6.6-2.2,16.4-3.9,23.5-4.9c5.5-0.8,11-0.8,16.4,0c7.1,1,16.9,2.7,23.5,4.9c0.2,0.1,0.3,0.2,0.3,0.4v7.6c0,0.8,0.6,1.4,1.4,1.4
				s1.4-0.6,1.4-1.4V8.8c0-1.4-0.9-2.7-2.2-3.1c-6.8-2.3-16.8-4-24-5.1c-5.7-0.8-11.5-0.8-17.3,0c-7.2,1-17.2,2.8-24,5.1
				C14.9,6.1,14,7.4,14,8.8v41h-4c-1.4,0-2.6,1.2-2.6,2.6v9.8H2.7c-0.9,0-1.7,0.4-2.2,1.2C0,64.2-0.1,65.1,0.2,66l1.4,3.7l-1.4,3.7
				c-0.3,0.8-0.2,1.8,0.3,2.5C1,76.6,1.8,77,2.7,77h9c1.5,0,2.7-1.2,2.7-2.7v-4.6h1.2c1.8,4.9,5,9.3,9.4,12.7
				c6.6,5.2,14.5,8.9,23.4,11.2c0.1,0,0.2,0,0.4,0c0.1,0,0.2,0,0.4,0c8.9-2.3,16.8-6.1,23.4-11.2c4.4-3.4,7.6-7.8,9.4-12.7h1.2v4.6
				c0,1.5,1.2,2.7,2.7,2.7h9c0.9,0,1.7-0.4,2.2-1.2c0.5-0.7,0.6-1.7,0.3-2.5L96.2,69.6z M23.1,14.4c5.3-1.8,13.3-3.2,19.1-4
				c4.4-0.6,8.9-0.6,13.3,0c5.8,0.8,13.8,2.2,19.1,4v35.5H23.1V14.4z M11.6,74.1H2.9l1.3-3.5c0.2-0.6,0.2-1.3,0-1.9l-1.3-3.5h4.5
				v1.9c0,1.4,1.2,2.6,2.6,2.6h1.6V74.1z M70.9,80.1c-6.2,4.9-13.6,8.4-22,10.6c-8.4-2.2-15.8-5.8-22-10.6
				c-3.6-2.8-6.4-6.4-8.1-10.4h4.1c1.6,2.9,3.8,5.6,6.5,7.7c5.4,4.2,11.9,7.3,19.2,9.2c0.1,0,0.2,0,0.4,0c0.1,0,0.2,0,0.4,0
				c7.3-1.9,13.7-5,19.2-9.2c2.8-2.2,5-4.8,6.5-7.7H79C77.3,73.7,74.6,77.2,70.9,80.1z M40.8,66.8c-0.8,0-1.4,0.6-1.4,1.4
				s0.6,1.4,1.4,1.4h30.8c-1.3,2-3,3.9-5,5.5c-5,3.9-11,6.8-17.8,8.6c-6.8-1.8-12.7-4.7-17.8-8.6c-2-1.6-3.7-3.4-5-5.5h8
				c0.8,0,1.4-0.6,1.4-1.4s-0.6-1.4-1.4-1.4H10.2V52.7h77.3v14.1L40.8,66.8z M93.5,70.6l1.3,3.5h-8.7v-4.5h1.6
				c1.4,0,2.6-1.2,2.6-2.6v-1.9h4.5l-1.3,3.5C93.3,69.3,93.3,70,93.5,70.6z"/>
			<path fill="#FFFFFF" d="M69.8,34.1c0,0,0-8.3,0-8.3c0,0,0,0,0,0c0,0,0,0,0-0.1c0,0,0-0.1,0-0.1c-0.1-0.7-0.5-1.2-1.1-1.5L49,15.8
				c-0.8-0.3-1.8-0.3-2.6,0l-19.6,8.3c-0.7,0.3-1.1,0.9-1.1,1.7c0,0.7,0.4,1.4,1.1,1.7l7.2,3.1v8c0,1.3,0.8,2.4,2.1,2.8
				c1.1,0.3,2.5,0.8,2.7,0.8c2.7,0.8,5.9,1.3,9.3,1.3c4,0,8.2-0.7,11.6-2.4c1-0.5,1.6-1.5,1.6-2.6v-7.9l5.5-2.3v5.9
				c-1.4,0.6-2.3,1.9-2.3,3.5v2.8c0,2.1,1.7,3.8,3.8,3.8c2.1,0,3.8-1.7,3.8-3.8v-2.8C72.1,36,71.1,34.6,69.8,34.1L69.8,34.1z
				 M58.5,38.4C58.5,38.5,58.5,38.5,58.5,38.4c-5.7,2.9-13.8,2.5-18.9,1c-0.2,0-1.1-0.3-2.7-0.8c0,0-0.1,0-0.1-0.1v-6.8l9.5,4
				c0.4,0.2,0.9,0.3,1.3,0.3c0.4,0,0.9-0.1,1.3-0.3l9.5-4L58.5,38.4L58.5,38.4z M48.9,27.3h12.9l-13.9,5.9c-0.1,0-0.2,0-0.4,0
				l-17.3-7.3l17.3-7.3c0.1,0,0.2,0,0.4,0l14,5.9h-13c-0.8,0-1.4,0.6-1.4,1.4C47.5,26.6,48.1,27.3,48.9,27.3z"/>
			<g>
				<path fill="#FFFFFF" d="M26.3,55.5v1.6h-2.2v6.6h-2v-6.6h-2.2v-1.6H26.3z"/>
				<path fill="#FFFFFF" d="M30.2,63.2c-0.6-0.4-1.2-0.9-1.5-1.5c-0.4-0.6-0.6-1.4-0.6-2.2c0-0.8,0.2-1.5,0.6-2.2
					c0.4-0.6,0.9-1.1,1.5-1.5c0.6-0.4,1.4-0.5,2.1-0.5c0.8,0,1.5,0.2,2.1,0.5c0.6,0.4,1.2,0.9,1.5,1.5s0.6,1.4,0.6,2.2
					c0,0.8-0.2,1.5-0.6,2.2c-0.4,0.6-0.9,1.2-1.5,1.5c-0.6,0.4-1.4,0.5-2.1,0.5C31.5,63.8,30.8,63.6,30.2,63.2z M33.9,61.3
					c0.4-0.4,0.6-1,0.6-1.7c0-0.7-0.2-1.3-0.6-1.7s-0.9-0.7-1.6-0.7c-0.7,0-1.2,0.2-1.6,0.6s-0.6,1-0.6,1.8c0,0.7,0.2,1.3,0.6,1.7
					s0.9,0.7,1.6,0.7C33,62,33.5,61.7,33.9,61.3z"/>
				<path fill="#FFFFFF" d="M40.5,63.2c-0.6-0.4-1.2-0.9-1.5-1.5c-0.4-0.6-0.6-1.4-0.6-2.2c0-0.8,0.2-1.5,0.6-2.2
					c0.4-0.6,0.9-1.1,1.5-1.5c0.6-0.4,1.4-0.5,2.1-0.5c0.8,0,1.5,0.2,2.1,0.5c0.6,0.4,1.2,0.9,1.5,1.5s0.6,1.4,0.6,2.2
					c0,0.8-0.2,1.5-0.6,2.2c-0.4,0.6-0.9,1.2-1.5,1.5c-0.6,0.4-1.4,0.5-2.1,0.5C41.9,63.8,41.2,63.6,40.5,63.2z M44.2,61.3
					c0.4-0.4,0.6-1,0.6-1.7c0-0.7-0.2-1.3-0.6-1.7s-0.9-0.7-1.6-0.7c-0.7,0-1.2,0.2-1.6,0.6s-0.6,1-0.6,1.8c0,0.7,0.2,1.3,0.6,1.7
					S42,62,42.6,62C43.3,62,43.8,61.7,44.2,61.3z"/>
				<path fill="#FFFFFF" d="M51.1,62.2h2.6v1.6h-4.6v-8.3h2V62.2z"/>
				<path fill="#FFFFFF" d="M57.8,55.5v4.9c0,0.5,0.1,0.9,0.4,1.1c0.2,0.3,0.6,0.4,1.1,0.4c0.5,0,0.8-0.1,1.1-0.4
					c0.3-0.3,0.4-0.6,0.4-1.1v-4.9h2v4.9c0,0.7-0.2,1.4-0.5,1.9c-0.3,0.5-0.7,0.9-1.3,1.2c-0.5,0.3-1.1,0.4-1.8,0.4
					s-1.2-0.1-1.7-0.4c-0.5-0.3-0.9-0.6-1.2-1.2c-0.3-0.5-0.4-1.1-0.4-1.9v-4.9H57.8z"/>
				<path fill="#FFFFFF" d="M70.4,55.5v5.6c0,0.9-0.2,1.5-0.7,2c-0.5,0.5-1.1,0.7-2,0.7c-0.9,0-1.6-0.2-2.1-0.7
					c-0.5-0.5-0.8-1.2-0.8-2.1h2c0,0.3,0.1,0.6,0.2,0.8c0.1,0.2,0.3,0.3,0.6,0.3c0.2,0,0.4-0.1,0.6-0.2c0.1-0.2,0.2-0.4,0.2-0.7
					v-5.6H70.4z"/>
				<path fill="#FFFFFF" d="M75.1,55.5v8.3h-2v-8.3H75.1z"/>
			</g>
		</g>
	</g>
</g>
</svg>
