<svg id="Capa_1" enable-background="new 0 0 512 512" height="512" viewBox="0 0 512 512" width="512" xmlns="http://www.w3.org/2000/svg"><g><g><path d="m50.937 319.059h64.65c4.142 0 7.5-3.358 7.5-7.5v-32.325c0-4.142-3.358-7.5-7.5-7.5h-64.65c-4.142 0-7.5 3.358-7.5 7.5v32.325c0 4.142 3.358 7.5 7.5 7.5zm7.5-32.325h49.65v17.325h-49.65z"/><path d="m43.437 376.209c0 4.142 3.358 7.5 7.5 7.5h64.65c4.142 0 7.5-3.358 7.5-7.5v-32.325c0-4.142-3.358-7.5-7.5-7.5h-64.65c-4.142 0-7.5 3.358-7.5 7.5zm15-24.825h49.65v17.325h-49.65z"/><path d="m498.439 207.083h-119.78v-17.397c7.918-.729 14.141-7.401 14.141-15.507v-16.17c0-8.591-6.989-15.58-15.58-15.58h-.582v-27.86l1.182.61c1.099.567 2.275.837 3.434.837 2.64 0 5.194-1.397 6.562-3.859l15.152-27.274c.981-1.765 1.208-3.852.63-5.787-.578-1.936-1.911-3.556-3.699-4.495l-140.412-73.741c-2.184-1.146-4.791-1.146-6.975 0l-140.412 73.742c-1.788.939-3.122 2.56-3.699 4.495-.578 1.935-.351 4.022.63 5.787l15.152 27.274c1.968 3.542 6.394 4.881 9.996 3.022l1.182-.61v27.86h-.582c-8.591 0-15.58 6.989-15.58 15.58v16.17c0 8.105 6.223 14.778 14.141 15.507v17.397h-119.779c-7.478-.001-13.561 6.083-13.561 13.561v20.203c0 6.64 4.8 12.169 11.11 13.328v26.065c0 4.142 3.358 7.5 7.5 7.5s7.5-3.358 7.5-7.5v-25.832h115.313v146.147c-4.679 1.473-8.082 5.851-8.082 11.009v20.785h-4.622c-9.706 0-17.602 7.896-17.602 17.602v14.724h-3.612c-8.591 0-15.581 6.99-15.581 15.581v16.163c0 .196.022.387.029.582h-65.843v-181.762c0-4.142-3.358-7.5-7.5-7.5s-7.5 3.358-7.5 7.5v189.26c0 4.142 3.358 7.5 7.5 7.5h474.78c4.142 0 7.5-3.358 7.5-7.5v-53.211c0-4.142-3.358-7.5-7.5-7.5s-7.5 3.358-7.5 7.5v45.711h-65.844c.007-.195.029-.385.029-.582v-16.163c0-8.591-6.99-15.581-15.581-15.581h-3.612v-14.724c0-9.706-7.896-17.602-17.602-17.602h-4.622v-20.785c0-5.158-3.403-9.536-8.082-11.009v-146.145h115.314v161.88c0 4.142 3.358 7.5 7.5 7.5s7.5-3.358 7.5-7.5v-162.114c6.31-1.158 11.11-6.688 11.11-13.328v-20.203c0-7.477-6.083-13.561-13.561-13.561zm-166.248 192.941v-177.941h23.386v177.941zm-41.417 32.326v-20.785c0-5.159-3.403-9.536-8.082-11.009v-179.004c4.678-1.473 8.082-5.851 8.082-11.01v-20.782h18.335v20.783c0 5.159 3.403 9.536 8.081 11.01v179.004c-4.678 1.473-8.081 5.851-8.081 11.009v20.785h-18.335zm-142.433-242.59h39.549v17.324h-39.549zm8.082 32.323h23.386v177.941h-23.386zm38.386 178.473v-179.004c4.678-1.473 8.081-5.851 8.081-11.01v-20.782h18.335v20.783c0 5.159 3.403 9.537 8.082 11.01v179.003c-4.678 1.473-8.082 5.851-8.082 11.009v20.785h-18.335v-20.785c0-5.158-3.403-9.536-8.081-11.009zm49.498-178.473h23.386v177.941h-23.386zm31.467-15h-39.549v-17.323h39.549zm-39.548 207.941h39.549v17.325h-39.549zm87.884-207.941v-17.323h39.549v17.324h-39.549zm-190.346-108.567-7.891-14.204 130.127-68.341 130.127 68.34-7.891 14.204-118.796-61.314c-1.079-.557-2.259-.835-3.44-.835s-2.361.278-3.44.835zm.436 59.494c0-.32.26-.58.58-.58h43.11c4.142 0 7.5-3.358 7.5-7.5s-3.358-7.5-7.5-7.5h-27.528v-35.602l105.638-54.522 105.638 54.523v35.602h-148.748c-4.142 0-7.5 3.358-7.5 7.5s3.358 7.5 7.5 7.5h164.33c.32 0 .58.26.58.58v16.17c0 .32-.26.58-.58.58h-242.44c-.32 0-.58-.26-.58-.58zm-119.2 81.399v-17.325h126.423v17.325zm133.341 175.615h39.549v17.325h-39.549zm256.734 65.232v16.163c0 .321-.261.582-.581.582h-296.988c-.32 0-.581-.261-.581-.582v-16.163c0-.32.261-.581.581-.581h296.988c.32 0 .581.261.581.581zm-19.193-30.305v14.724h-259.764v-14.724c0-1.435 1.167-2.602 2.602-2.602h254.56c1.435.001 2.602 1.168 2.602 2.602zm-61.772-17.601v-17.325h39.549v17.325zm46.467-210.267h126.423v17.325h-126.423z"/><path d="m468.563 279.234c0-4.142-3.358-7.5-7.5-7.5h-64.65c-4.142 0-7.5 3.358-7.5 7.5v32.325c0 4.142 3.358 7.5 7.5 7.5h64.65c4.142 0 7.5-3.358 7.5-7.5zm-15 24.825h-49.65v-17.325h49.65z"/><path d="m461.063 336.384h-64.65c-4.142 0-7.5 3.358-7.5 7.5v32.325c0 4.142 3.358 7.5 7.5 7.5h64.65c4.142 0 7.5-3.358 7.5-7.5v-32.325c0-4.142-3.358-7.5-7.5-7.5zm-7.5 32.325h-49.65v-17.325h49.65z"/><path d="m256 125.108c14.718 0 26.693-11.975 26.693-26.693s-11.975-26.693-26.693-26.693-26.693 11.975-26.693 26.693 11.975 26.693 26.693 26.693zm0-38.386c6.447 0 11.693 5.246 11.693 11.693 0 6.448-5.246 11.693-11.693 11.693s-11.693-5.246-11.693-11.693c0-6.448 5.246-11.693 11.693-11.693z"/></g></g></svg>